# xmcd
#
# Track frame offsets: 
#        150
#        20846
#        43567
#        59903
#        76277
#        93977
#        109506
#        126165
#        147468
#        163387
#        198459
#        213497
#        233307
#        251763
#        269059
#        297124
#        316051
#        334495
#
# Disc length: 4751 seconds
#
# Revision: 0
# Processed by: cddbd v1.5.2PL0 Copyright (c) Steve Scherf et al.
# Submitted via: ExactAudioCopyFreeDBPlugin 1.0
#
DISCID=17128d12
DTITLE=Diverse - Late Night Sessions CD 2
DYEAR=2011
DGENRE=Alternative
TTITLE0=Hot Chip - Take It In
TTITLE1=Hurts - Wonderful Life
TTITLE2=Phoenix - Lisztomania
TTITLE3=Simian Mobile Disco - Cruel Intensions
TTITLE4=Social Disco Club and Maia - The Way You Move
TTITLE5=Tré - Hazydaze (Dazylude)
TTITLE6=Molly Wagger - Weekend
TTITLE7=Maya Jane Coles - Humming Bird
TTITLE8=Steffi Feat. Virginia - You Own My Mind
TTITLE9=Solu Music Feat. KimBee - Fade
TTITLE10=Wamdue Project Feat. Jessica Taylor - Paths
TTITLE11=Coyote - Always
TTITLE12=D-Pulse - Velocity Of Love
TTITLE13=Acos Coolkas - Free Flight
TTITLE14=Smith and Mudd - My Hill
TTITLE15=Mario and Vidis Feat. Jazzu - I'll Be Gone
TTITLE16=Al Usher - Lullaby For Robert
TTITLE17=Maddslinky Feat. Tawiah - Further Away
EXTD=
EXTT0=
EXTT1=
EXTT2=
EXTT3=
EXTT4=
EXTT5=
EXTT6=
EXTT7=
EXTT8=
EXTT9=
EXTT10=
EXTT11=
EXTT12=
EXTT13=
EXTT14=
EXTT15=
EXTT16=
EXTT17=
PLAYORDER=
